<svg version="1.2" xmlns="http://www.w3.org/2000/svg" viewBox="0 0 1475 1552" width="1475" height="1552">
	<title>idp-logo-svg</title>
	<style>
		.s0 { fill: #0086f8 } 
		.s1 { fill: #ff8300 } 
		.s2 { fill: #51c21a } 
	</style>
	<g id="Layer_2">
		<g id="Layer_1-2">
			<path id="Layer" class="s0" d="m1368.3 961.7c148.5 194.8 98.9 577.1 97.2 589.6-597.7-0.9-747-319.6-752.2-474.1-0.8-6.6-9.8-106.9 82.2-227.1 19 8.9 39.5 13.9 60.4 14.7 20.9 0.8 41.8-2.5 61.4-9.9 19.6-7.4 37.5-18.6 52.7-32.9 15.2-14.4 27.4-31.7 35.9-50.9 0 0 118.7-4.8 202.9 44.9 15.8 9 31.1 18.9 45.9 29.5 14.7 10.7 28.8 22.2 42.3 34.5 13.5 12.2 26.2 25.2 38.3 38.9 12 13.6 23.2 27.9 33.7 42.8"/>
			<path id="Layer" class="s1" d="m915.2 559.3q-6.3-2.1-12.8-3.7-6.4-1.5-13-2.6-6.6-1-13.2-1.6-6.6-0.5-13.3-0.5c-19.6-0.1-38.9 3.6-57.2 10.7-18.2 7.1-34.9 17.5-49.3 30.8-14.4 13.3-26.2 29.1-34.8 46.7-8.5 17.6-13.7 36.6-15.3 56.2-14.7-1.6-28.3-2.8-40-3.5h-1.4c-529.1-79.6-646.9-580.5-647.9-584.9 394.6-176 701.7-116 868.1 46.2 18.5 16.7 182.9 174.2 30.1 406.2z"/>
			<path id="Layer" class="s2" d="m796.2 850.2q-12.1 15.4-22.7 31.9-10.6 16.4-19.6 33.8-9 17.4-16.3 35.6-7.3 18.2-12.9 37c-10.2 16.8-11.8 19.3-16.5 26.7q-7 11-14.6 21.7-7.6 10.6-15.8 20.9-8.2 10.2-16.9 20-8.7 9.7-18 19c-238.4 236-631.2 184.1-642.9 182.6 0 0 19.5-284.9 241.4-458.4 27.6-20.5 56.7-38.7 87.1-54.6 30.4-16 62-29.5 94.5-40.6 32.5-11 65.8-19.5 99.7-25.4 33.8-5.9 68-9.2 102.3-9.8q10.2 0 20.4 0.2 10.2 0.3 20.4 0.9 10.2 0.6 20.4 1.5 10.1 0.9 20.3 2.1c-0.7 4.2-0.7 8.8-0.7 12.7 0 14.8 2.1 29.5 6.3 43.8 4.1 14.2 10.3 27.8 18.2 40.3 8 12.5 17.7 23.8 28.8 33.6 11.2 9.8 23.6 18 37.1 24.2z"/>
		</g>
	</g>
</svg>